<?xml version="1.0" standalone="no"?>
<!DOCTYPE svg PUBLIC "-//W3C//DTD SVG 20010904//EN"
 "http://www.w3.org/TR/2001/REC-SVG-20010904/DTD/svg10.dtd">
<svg version="1.0" xmlns="http://www.w3.org/2000/svg"
 width="134.000000pt" height="142.000000pt" viewBox="0 0 134.000000 142.000000"
 preserveAspectRatio="xMidYMid meet">
<metadata>
Created by potrace 1.15, written by Peter Selinger 2001-2017
</metadata>
<g transform="translate(0.000000,142.000000) scale(0.100000,-0.100000)"
fill="#000000" stroke="none">
<path d="M585 1406 c-132 -30 -295 -120 -355 -196 -55 -69 -72 -123 -79 -249
-4 -64 -13 -127 -20 -140 -7 -13 -40 -53 -73 -88 -71 -76 -72 -93 -8 -138 46
-33 60 -59 41 -78 -16 -16 -13 -47 5 -54 10 -4 14 -13 10 -29 -4 -16 0 -29 15
-43 19 -18 21 -26 14 -98 -6 -71 -5 -80 13 -97 36 -32 88 -37 214 -20 135 19
165 15 174 -24 3 -15 14 -54 23 -87 l17 -60 44 -4 c39 -3 590 28 598 34 1 1
-19 56 -45 121 -40 102 -47 129 -47 189 -1 83 11 108 97 215 33 41 72 100 86
130 24 51 26 65 26 200 0 135 -2 149 -26 200 -63 134 -193 237 -379 300 -83
28 -257 36 -345 16z m264 -156 c24 -11 61 -20 82 -20 58 0 105 -23 136 -69 15
-22 38 -42 51 -46 30 -7 61 -76 62 -133 0 -23 7 -54 16 -68 21 -31 14 -101
-13 -141 -11 -15 -23 -41 -27 -58 -7 -26 -24 -45 -138 -149 -27 -24 -39 -44
-44 -75 -6 -37 -9 -41 -35 -41 l-29 0 0 102 0 101 47 45 46 45 23 -26 c15 -17
28 -24 42 -20 26 6 18 36 -17 66 -25 21 -26 25 -17 75 5 28 14 52 20 52 5 0
25 10 43 23 58 39 33 74 -29 38 l-34 -21 -22 29 c-12 16 -37 34 -57 41 -36 12
-44 27 -24 47 8 8 7 17 -4 33 -13 19 -16 20 -31 5 -9 -9 -19 -27 -22 -41 -8
-33 -47 -33 -62 1 -6 14 -16 25 -22 25 -6 0 -8 15 -4 40 6 38 5 40 -18 40 -20
0 -27 -6 -31 -28 -5 -24 -13 -30 -58 -41 -45 -12 -54 -12 -63 1 -13 16 -57 48
-67 48 -21 0 -13 -38 14 -61 29 -25 29 -26 14 -56 -24 -45 -44 -48 -83 -13
-40 35 -74 40 -74 11 0 -11 9 -23 20 -26 11 -3 25 -15 30 -26 12 -21 9 -22
-47 -19 -35 2 -83 -36 -83 -65 0 -19 34 -20 50 0 7 9 29 15 54 15 56 0 123 37
165 91 18 24 43 47 55 50 70 19 76 19 96 -1 19 -19 19 -22 5 -50 -9 -18 -26
-32 -43 -35 -41 -9 -92 -33 -92 -44 0 -22 33 -28 60 -13 31 18 60 10 60 -16 0
-10 6 -27 14 -38 14 -18 16 -18 31 -3 13 13 15 21 6 37 -17 32 -13 77 9 97 18
16 26 17 74 6 80 -18 106 -42 106 -98 0 -59 -23 -106 -71 -144 -50 -39 -63
-87 -56 -196 l6 -83 -29 0 -30 0 0 116 c0 63 -5 124 -10 134 -6 11 -31 31 -56
46 -47 28 -94 33 -294 33 -99 0 -142 17 -178 71 -20 29 -23 43 -18 83 6 56 35
108 71 127 14 7 25 22 25 32 0 10 15 34 33 54 25 27 42 37 77 41 29 4 57 16
78 34 35 31 87 38 137 19 22 -8 32 -6 52 10 32 25 66 25 122 0z"/>
</g>
</svg>
